# Exported from Wings 3D 2.0.3
mtllib LUMA.mtl
o COMMON
#86 vertices, 144 faces
v 2.09844754 2.26575766 -5.79935582
v -5.72779977 1.09013034 -1.94924591
v 1.07612700 7.12981497 -1.50846115
v -2.95033869 6.86595501 0.57646999
v 5.71343529 0.21332422 0.92224224
v -2.11281202 -0.96230310 4.77235215
v 2.93597420 6.07387430 1.94968206
v -1.09049149 5.46903486 3.93049545
v -4.55088966 -2.07848119 -2.59386044
v 1.66525358 -1.14471721 -5.65188222
v 4.53652518 -2.77490084 -0.31312730
v -1.67961806 -3.70866482 2.74489447
v -2.32062437 0.44375751 -5.27961647
v 5.00129123 0.20994881 -3.34203918
v -5.01565571 -1.29475658 1.58578193
v -1.47359826 6.86055813 -1.11705926
v 2.30625989 -2.18318693 3.32347113
v 1.04335528 6.40612271 3.37906000
v -1.30840897 -2.77581042 -4.20514429
v 1.29404449 -4.25337076 0.63377839
v 1.89226196 5.23368528 -4.32724569
v -5.16763062 4.17317667 -0.85414277
v 5.15326614 3.38222837 1.73616611
v -1.90662644 2.32171977 5.20926903
v 2.00355904 2.83151561 4.23939553
v -2.01792352 5.11473919 -3.23802660
v 1.03874957 9.30399721 1.18921152
v 1.33732574 9.19654159 1.72582104
v 2.35278830 8.88048566 0.73842018
v -0.41722896 8.84742968 1.64786143
v -3.6163534e-2 8.57092258 2.64720886
v 1.27582141 7.85928719 1.07378918
v 1.19137476 7.80532141 2.19657868
v 0.30381810 8.27131715 0.55761930
v 0.27562965 -2.69700161 -3.29137085
v 1.52301781 -3.40521457 -0.97201531
v -0.28999413 -3.67755791 -8.0106971e-2
v -1.53738229 -2.96934495 -2.39946251
v -3.10366190 5.33933888 2.58319431
v -2.77721759 2.67563902 4.29845545
v -4.68669714 1.02133553 2.11607898
v -4.88119247 3.87018481 0.38638868
v 4.67233265 2.42721125 -2.48808083
v 4.86682799 3.82389673 0.53797939
v 2.98767562 6.16841602 -0.43967089
v 2.76285311 5.01844252 -3.37408738
v 6.33338898 5.96488761 -2.30119864
v -6.42598270 4.00900462 3.96377768
v 3.99353824 5.81547629 -1.08841042
v -4.10100487 4.61292866 2.89777337
v 6.37035396 4.32655991 -2.82134080
v -6.41329024 2.35236292 3.45109753
v -5.19329724 3.49095847 4.58126117
v -6.59234069 4.19918655 2.67269243
v -5.34906701 4.54830355 3.54926883
v 6.27064238 5.26369285 -1.04293439
v 5.41419785 6.07201566 -3.21275806
v 5.29802631 6.16365179 -1.68367085
v -3.68427676 -4.55189834 -0.12482099
v 3.61918929 -3.45480111 -3.71774950
v -2.78772422 -5.30136317 -0.83585029
v 2.72263675 -4.47361896 -3.54666360
v -1.8298313e-2 -4.12647545 9.49074624
v -6.90748821 -4.12647545 6.63715035
v -9.76108411 -4.12647545 -0.25203955
v -6.90748821 -4.12647545 -7.14122945
v -1.8298313e-2 -4.12647545 -9.99482534
v 6.87089159 -4.12647545 -7.14122945
v 9.72448748 -4.12647545 -0.25203955
v 6.87089159 -4.12647545 6.63715035
v -1.8298313e-2 -8.24426125 3.21296045
v -2.46842331 -8.24426125 2.19808545
v -3.48329831 -8.24426125 -0.25203955
v -2.46842331 -8.24426125 -2.70216455
v -1.8298313e-2 -8.24426125 -3.71703955
v 2.43182668 -8.24426125 -2.70216455
v 3.44670169 -8.24426125 -0.25203955
v 2.43182668 -8.24426125 2.19808545
v -2.58107696 -6.04865971 5.93505541
v 2.54448033 -6.04865971 5.93505541
v -6.20539327 -6.04865971 2.31073909
v -6.20539327 -6.04865971 -2.81481819
v -2.58107696 -6.04865971 -6.43913451
v 2.54448033 -6.04865971 -6.43913451
v 6.16879665 -6.04865971 -2.81481819
v 6.16879665 -6.04865971 2.31073909
vt 5.2154089e-3 0.51415308
vt 7.7223926e-3 0.28477600
vt 8.9143829e-3 0.64224440
vt 9.1944061e-3 0.96969686
vt 9.3260405e-3 0.96926900
vt 9.7421246e-3 0.96920254
vt 9.9707258e-3 0.64340710
vt 1.0175098e-2 0.96912455
vt 1.0962734e-2 0.96860944
vt 1.1612847e-2 0.97023502
vt 1.1733759e-2 0.97407528
vt 1.2727262e-2 0.97436417
vt 1.3468807e-2 0.99049051
vt 1.4478141e-2 0.80417620
vt 1.4969112e-2 0.99537043
vt 1.4990234e-2 0.99125331
vt 1.5364822e-2 0.80573665
vt 1.7699011e-2 0.17862255
vt 1.9650507e-2 0.98856772
vt 2.2049717e-2 0.81690661
vt 2.2810515e-2 1.4320508e-2
vt 2.5519333e-2 0.62256197
vt 2.8584965e-2 0.82599491
vt 3.0107243e-2 0.82675779
vt 3.1552201e-2 0.82351146
vt 4.9773280e-2 0.44462840
vt 7.3290941e-2 0.97467829
vt 7.4392019e-2 0.97768600
vt 7.4812451e-2 0.97544140
vt 7.9256990e-2 0.97155242
vt 8.1491759e-2 0.11506888
vt 8.7736235e-2 0.31329100
vt 9.0617169e-2 0.11810329
vt 9.5907879e-2 0.56074207
vt 0.10013318 0.72484059
vt 0.10050950 0.72538754
vt 0.10137577 0.40078693
vt 0.11725314 0.53477312
vt 0.12270249 0.74527650
vt 0.12292844 0.74568729
vt 0.13148153 0.82466235
vt 0.13278943 0.82615723
vt 0.13589830 3.1017077e-2
vt 0.13735319 0.86590169
vt 0.13917932 0.84142199
vt 0.14062474 0.84132218
vt 0.14214694 0.84208564
vt 0.14575660 0.83614572
vt 0.15061112 0.85812971
vt 0.15200113 0.93909106
vt 0.15256939 0.93585623
vt 0.16386283 0.44983064
vt 0.16582816 9.6404028e-2
vt 0.16736000 0.44551222
vt 0.17007017 9.4163920e-2
vt 0.17060178 0.63175407
vt 0.17203714 0.63270856
vt 0.17938570 0.60398804
vt 0.18310761 5.4697997e-3
vt 0.19507280 7.2498324e-3
vt 0.19582970 7.0387213e-3
vt 0.19993247 0.68951886
vt 0.20256745 0.74615543
vt 0.20397925 0.74753556
vt 0.20649410 0.98687011
vt 0.20655978 0.90367755
vt 0.20902285 0.90689130
vt 0.21251968 0.73596542
vt 0.21422244 0.73781518
vt 0.21727947 6.8616643e-2
vt 0.21977065 0.97798762
vt 0.23925668 0.10059672
vt 0.24001358 0.10038561
vt 0.25841744 0.18387585
vt 0.26186000 9.2934322e-2
vt 0.26312000 9.3716167e-2
vt 0.27191341 0.87079938
vt 0.27227651 0.86549679
vt 0.28450410 0.36220826
vt 0.28485513 0.28520170
vt 0.28599346 0.28496626
vt 0.32083183 4.1737767e-2
vt 0.32182533 4.2026656e-2
vt 0.32333117 3.8365943e-2
vt 0.32352847 3.9111593e-2
vt 0.32457290 3.8992549e-2
vt 0.32480688 4.8625198e-3
vt 0.32520189 3.9398427e-2
vt 0.32529680 3.8024173e-2
vt 0.32542196 3.8848104e-2
vt 0.32556379 4.6514087e-3
vt 0.32886261 0.91486345
vt 0.34699544 0.30687935
vt 0.34739444 0.30610398
vt 0.35517896 0.98305853
vt 0.35755130 0.98606804
vt 0.36119086 0.28642313
vt 0.36192530 0.28618122
vt 0.49761040 0.21314158
vt 0.49761040 0.28320361
vt 0.49829973 0.57875397
vt 0.49853435 0.57786825
vt 0.49863378 0.58038919
vt 0.49881467 0.57880613
vt 0.49904565 0.21134884
vt 0.49904565 0.28283913
vt 0.49962728 0.58067808
vt 0.49966372 0.57866168
vt 0.50000000 0.68477694
vt 0.50000000 0.96155151
vt 0.50000000 0.30529907
vt 0.50000000 0.14981771
vt 0.50000000 0.15029859
vt 0.50000000 9.8885946e-3
vt 0.50000000 1.1109835e-2
vt 0.50006806 0.57766655
vt 0.50040507 0.57890073
vt 0.57739079 0.33079910
vt 0.57859696 0.33079910
vt 0.63807470 0.28618122
vt 0.63880914 0.28642313
vt 0.64822535 0.30687935
vt 0.65069687 0.30610398
vt 0.66398074 4.2588930e-2
vt 0.66778026 3.8957422e-2
vt 0.66877376 3.9246311e-2
vt 0.67028897 3.7258182e-2
vt 0.67048705 3.8281569e-2
vt 0.67113739 0.91486345
vt 0.67153213 3.8502907e-2
vt 0.67215969 3.8290666e-2
vt 0.67225538 3.7194149e-2
vt 0.67238118 3.8358462e-2
vt 0.71081056 0.30788047
vt 0.71201672 0.30788047
vt 0.71400654 0.28496626
vt 0.71514487 0.28520170
vt 0.72637124 0.38502896
vt 0.72757740 0.38502896
vt 0.72975877 7.7605990e-2
vt 0.73443205 0.95652608
vt 0.73688000 9.3716167e-2
vt 0.73722605 0.95785519
vt 0.73774558 2.0979023e-2
vt 0.73814000 9.2934322e-2
vt 0.75501415 2.0912986e-2
vt 0.77863304 0.77525423
vt 0.78177371 0.13096692
vt 0.78489078 2.1530464e-2
vt 0.79183516 0.34134260
vt 0.79304133 0.34134260
vt 0.79362079 0.12336093
vt 0.79817424 0.24381496
vt 0.80006753 0.68951886
vt 0.80807474 0.31838939
vt 0.81468546 0.16667551
vt 0.81545258 5.7985654e-3
vt 0.82053405 0.81201934
vt 0.82224989 0.67994017
vt 0.82292603 0.81330502
vt 0.83264000 0.44551222
vt 0.83760176 0.59090344
vt 0.84502445 0.39075689
vt 0.85885743 0.98877763
vt 0.86226277 0.98812482
vt 0.86642831 0.10344529
vt 0.87020262 0.45172665
vt 0.87140879 0.45172665
vt 0.87815945 2.5726134e-2
vt 0.87924017 0.74207995
vt 0.88010466 0.43799082
vt 0.89392020 0.13473914
vt 0.89554517 0.21015058
vt 0.89648070 0.90686360
vt 0.89701750 7.2672742e-2
vt 0.89742674 0.31705862
vt 0.89988315 0.52544928
vt 0.90019470 0.90620585
vt 0.90340068 0.37765797
vt 0.90578277 0.45922805
vt 0.91514793 0.62987119
vt 0.94416875 0.96953465
vt 0.94928896 0.96868516
vt 0.95033337 0.43356905
vt 0.95167642 0.39469897
vt 0.97500093 0.16283426
vt 0.98030870 0.75935551
vt 0.98057375 0.75516336
vt 0.98375513 0.53409424
vt 0.98674499 0.31513858
vt 0.98730071 0.90340825
vt 0.98926995 0.96735224
vt 0.98940341 0.96788587
vt 0.98981547 0.96607338
vt 0.99007233 0.89967638
vt 0.99025247 0.96774143
vt 0.99103827 0.96626482
vt 0.99168620 0.96710586
vt 0.99178064 0.96622146
vt 0.99277414 0.96651035
vt 0.99433076 0.24009287
vn 0.36275764 0.28367585 -0.88765697
vn -0.96899362 8.3625547e-2 -0.23250406
vn 0.25372501 0.85484440 -0.45261979
vn -0.70822523 0.70553219 2.5324832e-2
vn 0.96899362 -6.0518671e-2 0.23955972
vn -0.36275764 -0.26056898 0.89471264
vn 0.70232729 0.58088093 0.41147749
vn -0.21361262 0.40481643 0.88909690
vn -0.43712925 -3.3436194e-2 -0.89877697
vn 0.87057898 -6.4215947e-2 -0.48782020
vn -0.87142763 -0.32145778 0.37051152
vn -0.29907336 0.80534018 -0.51184208
vn 0.43712925 -0.52980230 0.72679264
vn 0.36408728 0.38189957 0.84946640
vn 0.24816845 0.67155759 -0.69815673
vn -0.86058841 0.47934116 -0.17210358
vn 0.84706518 0.33152997 0.41541360
vn -0.24816845 0.16700839 0.95421204
vn 0.42579204 0.10765451 0.89839393
vn -0.42131796 0.59170647 -0.68729515
vn -0.14302087 0.97139935 -0.18954769
vn 0.39721808 0.71037417 0.58102180
vn 0.87303958 0.20944707 -0.44037917
vn -0.42860445 0.88412641 -0.18606109
vn -7.8201428e-2 0.68848731 0.72101994
vn 0.74931664 0.65847040 -7.0294439e-2
vn -0.65711497 0.43396706 0.61633799
vn 0.82415427 -0.30140628 -0.47950390
vn -0.76826856 -0.56677378 0.29754144
vn -0.13225029 0.16260788 0.97778757
vn -0.81881328 0.54929115 -0.16680544
vn -2.2897830e-2 0.94064296 0.33862445
vn 0.79431084 0.32598955 0.51264130
vn 0.22470599 0.72492450 -0.65114644
vn 3.7076723e-2 0.94918955 0.31251321
vn -0.73138501 -0.65388109 0.19368912
vn 0.72782208 -0.44018441 -0.52584476
vn -3.0544096e-2 -0.96043063 -0.27683943
vn 2.8352344e-2 -0.95166154 -0.30583729
vn -1.4001469e-17 -0.83617076 0.54846919
vn -0.38782628 -0.83617076 0.38782628
vn -0.54846919 -0.83617076 1.2601322e-16
vn -0.38782628 -0.83617076 -0.38782628
vn -2.9403085e-16 -0.83617076 -0.54846919
vn 0.38782628 -0.83617076 -0.38782628
vn 0.54846919 -0.83617076 -3.5003673e-16
vn 0.38782628 -0.83617076 0.38782628
vn 3.5231849e-17 -0.85077692 0.52552701
vn -0.37160371 -0.85077692 0.37160371
vn -0.52552701 -0.85077692 6.3417328e-17
vn -0.37160371 -0.85077692 -0.37160371
vn -1.4797376e-16 -0.85077692 -0.52552701
vn 0.37160371 -0.85077692 -0.37160371
vn 0.52552701 -0.85077692 -2.1843746e-16
vn 0.37160371 -0.85077692 0.37160371
vn -0.20945867 -0.83690912 0.50567795
vn 0.20945867 -0.83690912 0.50567795
vn -0.50567795 -0.83690912 0.20945867
vn -0.50567795 -0.83690912 -0.20945867
vn -0.20945867 -0.83690912 -0.50567795
vn 0.20945867 -0.83690912 -0.50567795
vn 0.50567795 -0.83690912 -0.20945867
vn 0.50567795 -0.83690912 0.20945867
vn -0.73531904 -0.44055750 -0.51499029
vn -0.27271844 -0.95233923 -0.13665518
vn -0.73531904 -0.44055750 -0.51499029
vn -0.73531904 -0.44055750 -0.51499029
vn -0.73531904 -0.44055750 -0.51499029
vn -0.73531904 -0.44055750 -0.51499029
vn -0.73531904 -0.44055750 -0.51499029
vn 0.13287045 -0.31375996 -0.94015963
vn 0.13287045 -0.31375996 -0.94015963
vn 0.13287045 -0.31375996 -0.94015963
vn 0.27852898 -0.86953307 -0.40784047
vn 0.13287045 -0.31375996 -0.94015963
vn 0.13287045 -0.31375996 -0.94015963
vn 0.13287045 -0.31375996 -0.94015963
vn 0.73421517 -0.65517743 0.17796240
vn 0.73421517 -0.65517743 0.17796240
vn 0.73421517 -0.65517743 0.17796240
vn 0.27271844 -0.86623409 -0.41864441
vn 0.73421517 -0.65517743 0.17796240
vn 0.73421517 -0.65517743 0.17796240
vn 0.73421517 -0.65517743 0.17796240
vn -0.13160910 -0.78331785 0.60752958
vn -0.27852898 -0.94904026 -0.14745912
vn -0.13160910 -0.78331785 0.60752958
vn -0.13160910 -0.78331785 0.60752958
vn -0.13160910 -0.78331785 0.60752958
vn -0.13160910 -0.78331785 0.60752958
vn -0.13160910 -0.78331785 0.60752958
vn 3.7696913e-2 -0.97455590 -0.22095192
vn -0.35713863 -0.39479218 -0.84651706
vn -0.35713863 -0.39479218 -0.84651706
vn 3.7696913e-2 -0.97455590 -0.22095192
vn 3.7696913e-2 -0.97455590 -0.22095192
vn 0.35713863 -0.80032787 0.48158831
vn -3.7696913e-2 -0.93175055 -0.36113690
vn 0.35713863 -0.80032787 0.48158831
vn -3.7696913e-2 -0.93175055 -0.36113690
vn -3.7696913e-2 -0.93175055 -0.36113690
vn 0.52696288 -0.70943243 -0.46799118
vn 0.52696288 -0.70943243 -0.46799118
vn 0.63089635 0.76884194 -0.10417234
vn 0.63089635 0.76884194 -0.10417234
vn 0.63089635 0.76884194 -0.10417234
vn 0.63089635 0.76884194 -0.10417234
vn 0.78015999 0.20409455 0.59135083
vn 0.78015999 0.20409455 0.59135083
vn 0.78015999 0.20409455 0.59135083
vn 0.78015999 0.20409455 0.59135083
vn 0.78015999 0.20409455 0.59135083
vn -2.1426387e-2 0.66594780 -0.74569058
vn -2.1426387e-2 0.66594780 -0.74569058
vn -2.1426387e-2 0.66594780 -0.74569058
vn -2.1426387e-2 0.66594780 -0.74569058
vn -2.1426387e-2 0.66594780 -0.74569058
vn -2.1426387e-2 0.66594780 -0.74569058
vn -0.12528928 -0.94323576 -0.30758559
vn -0.12528928 -0.94323576 -0.30758559
vn -0.12528928 -0.94323576 -0.30758559
vn -0.12528928 -0.94323576 -0.30758559
vn -0.12528928 -0.94323576 -0.30758559
vn -0.12528928 -0.94323576 -0.30758559
vn -7.0387320e-2 -0.98512479 -0.15676344
vn -7.0387320e-2 -0.98512479 -0.15676344
vn -7.0387320e-2 -0.98512479 -0.15676344
vn -7.0387320e-2 -0.98512479 -0.15676344
vn -7.0387320e-2 -0.98512479 -0.15676344
vn 0.12282711 -0.95464650 -0.27122605
vn 0.12282711 -0.95464650 -0.27122605
vn 0.12282711 -0.95464650 -0.27122605
vn 0.12282711 -0.95464650 -0.27122605
vn 0.12282711 -0.95464650 -0.27122605
vn 0.12282711 -0.95464650 -0.27122605
vn 6.7947554e-2 -0.90567648 -0.41848924
vn 6.7947554e-2 -0.90567648 -0.41848924
vn 6.7947554e-2 -0.90567648 -0.41848924
vn 6.7947554e-2 -0.90567648 -0.41848924
vn 6.7947554e-2 -0.90567648 -0.41848924
vn -0.64352955 0.51536527 0.56592256
vn -0.64352955 0.51536527 0.56592256
vn -0.42103595 0.77916651 0.46435791
vn -0.42103595 0.77916651 0.46435791
vn -0.64352955 0.51536527 0.56592256
vn -0.64352955 0.51536527 0.56592256
vn -0.65961966 0.19550580 0.72572680
vn -0.65961966 0.19550580 0.72572680
vn -0.11864047 0.52725881 0.84138135
vn 0.14877717 -4.8983894e-3 0.98885861
vn 0.14877717 -4.8983894e-3 0.98885861
vn 0.14877717 -4.8983894e-3 0.98885861
vn 0.14877717 -4.8983894e-3 0.98885861
vn -0.65961966 0.19550580 0.72572680
vn -0.65961966 0.19550580 0.72572680
vn -0.87828112 1.7869200e-2 0.47781060
vn -0.87828112 1.7869200e-2 0.47781060
vn -0.57844771 -0.81330172 6.2757956e-2
vn -0.87828112 1.7869200e-2 0.47781060
vn -0.87828112 1.7869200e-2 0.47781060
vn -0.57844771 -0.81330172 6.2757956e-2
vn -0.90922774 0.30117889 0.28739553
vn -0.59836389 0.79962499 -5.0601751e-2
vn -0.67155354 0.45999592 -0.58087829
vn -0.67155354 0.45999592 -0.58087829
vn -0.90922774 0.30117889 0.28739553
vn -0.90922774 0.30117889 0.28739553
vn -0.90922774 0.30117889 0.28739553
vn -0.67155354 0.45999592 -0.58087829
vn -0.67155354 0.45999592 -0.58087829
vn 0.87828112 0.28173290 -0.38632739
vn 0.59501334 -0.62138331 -0.50974691
vn 0.87828112 0.28173290 -0.38632739
vn 0.59501334 -0.62138331 -0.50974691
vn 0.87828112 0.28173290 -0.38632739
vn 0.87828112 0.28173290 -0.38632739
vn 0.89801702 0.43621253 -5.7306761e-2
vn 0.67937363 8.4640438e-2 0.72889469
vn 0.55743320 0.65793314 0.50635186
vn 0.67937363 8.4640438e-2 0.72889469
vn 0.89801702 0.43621253 -5.7306761e-2
vn 0.67937363 8.4640438e-2 0.72889469
vn 0.67937363 8.4640438e-2 0.72889469
vn 0.89801702 0.43621253 -5.7306761e-2
vn 0.89801702 0.43621253 -5.7306761e-2
vn 0.66620616 0.73385424 -0.13276787
vn 0.66620616 0.73385424 -0.13276787
vn 0.37555689 0.92334350 7.9961268e-2
vn 0.37555689 0.92334350 7.9961268e-2
vn 0.66620616 0.73385424 -0.13276787
vn 0.66620616 0.73385424 -0.13276787
vn 0.67046673 0.56540572 -0.48040684
vn 0.67046673 0.56540572 -0.48040684
vn -0.17461196 0.54608306 -0.81933141
vn 8.6522723e-2 0.92529571 -0.36924472
vn -0.17461196 0.54608306 -0.81933141
vn 0.67046673 0.56540572 -0.48040684
vn -0.17461196 0.54608306 -0.81933141
vn -0.17461196 0.54608306 -0.81933141
vn 0.67046673 0.56540572 -0.48040684
vn 0.37555689 0.92334350 7.9961268e-2
vn 0.37555689 0.92334350 7.9961268e-2
vn -9.5918788e-2 0.93641822 0.33752112
vn -9.5918788e-2 0.93641822 0.33752112
vn -0.42103595 0.77916651 0.46435791
vn -0.42103595 0.77916651 0.46435791
vn 8.1049908e-2 0.96460097 0.25094997
vn 8.1049908e-2 0.96460097 0.25094997
g COMMON
usemtl COMMON
s 1
f 39/105/143 50/106/205 40/94/149
f 42/123/163 50/106/206 39/105/144
f 44/122/179 49/100/202 45/99/189
f 45/99/188 49/100/201 46/93/195
s 2
f 40/143/153 52/178/29 41/160/158
f 40/69/151 55/67/32 53/49/30
f 41/160/161 52/178/29 42/188/170
f 42/188/164 52/178/29 54/195/31
f 42/96/165 55/67/32 50/77/207
f 43/158/172 51/174/28 44/141/183
f 44/141/178 51/174/28 56/164/33
f 44/95/180 58/66/35 49/78/203
f 46/187/198 51/174/28 43/158/174
f 46/68/196 58/66/35 57/44/34
f 47/182/26 51/174/28 57/191/34
f 48/183/27 52/178/29 53/165/30
f 49/78/204 58/66/35 46/68/199
f 50/77/208 55/67/32 40/69/152
f 53/165/30 52/178/29 40/143/150
f 53/49/30 55/67/32 48/50/27
f 54/195/31 52/178/29 48/183/27
f 54/65/31 55/67/32 42/96/169
f 55/67/32 54/65/31 48/50/27
f 56/164/33 51/174/28 47/182/26
f 56/71/33 58/66/35 44/95/182
f 57/191/34 51/174/28 46/187/194
f 57/44/34 58/66/35 47/51/26
f 58/66/35 56/71/33 47/51/26
s 3
f 1/153/1 10/156/71 13/173/9
f 1/153/1 26/176/20 21/155/15
f 1/145/1 43/112/176 14/114/10
f 2/60/2 9/72/66 15/87/11
f 2/201/2 13/173/9 9/186/64
f 2/201/2 26/176/20 13/173/9
f 2/76/2 42/98/167 22/81/16
f 3/163/3 26/176/20 16/179/12
f 3/79/3 32/32/107 45/74/191
f 3/24/3 46/29/197 21/16/15
f 5/161/5 25/109/19 17/111/13
f 5/75/5 44/97/185 23/80/17
f 6/189/6 15/184/11 12/177/85
f 6/54/6 25/109/19 24/62/18
f 6/142/6 41/113/159 15/115/11
f 7/129/7 25/109/19 23/154/17
f 7/124/7 31/149/25 18/140/14
f 7/33/7 45/74/190 32/32/106
f 8/92/8 25/109/19 18/110/14
f 8/25/8 40/30/154 24/19/18
f 9/186/67 13/173/9 19/172/93
f 9/57/68 59/36/36 15/7/11
f 10/119/74 35/135/119 19/139/95
f 10/14/77 60/35/37 62/39/39
f 10/14/76 62/39/39 35/41/120
f 11/159/80 14/147/10 5/170/5
f 11/159/78 17/181/13 20/162/97
f 11/56/82 60/35/37 14/3/10
f 12/177/88 17/181/13 6/189/6
f 12/118/86 37/134/130 20/138/98
f 12/17/90 61/40/38 37/42/131
f 13/173/9 26/176/20 1/153/1
f 14/91/10 10/73/72 1/61/1
f 14/114/10 43/112/171 5/75/5
f 14/3/10 60/35/37 10/14/75
f 15/115/11 41/113/156 2/76/2
f 15/7/11 59/36/36 12/17/89
f 16/179/12 4/185/4 30/180/24
f 16/179/12 34/171/118 3/163/3
f 17/181/13 11/159/79 5/170/5
f 17/111/13 25/109/19 6/54/6
f 18/110/14 25/109/19 7/129/7
f 18/140/14 31/149/25 8/148/8
f 19/172/94 13/173/9 10/156/73
f 19/139/96 35/135/121 38/151/138
f 19/139/92 38/151/136 9/168/65
f 20/162/99 17/181/13 12/177/87
f 20/138/100 36/150/125 11/167/81
f 21/155/15 26/176/20 3/163/3
f 21/137/15 46/121/193 1/145/1
f 22/190/16 4/185/4 26/176/20
f 22/190/16 26/176/20 2/201/2
f 23/154/17 25/109/19 5/161/5
f 23/13/17 44/27/181 7/23/7
f 24/62/18 25/109/19 8/92/8
f 24/136/18 40/120/148 6/142/6
f 26/176/20 4/185/4 16/179/12
f 27/34/21 31/26/25 28/38/22
f 27/34/21 34/22/116 30/1/24
f 28/38/22 29/58/23 27/34/21
f 28/38/22 33/52/108 29/58/23
f 29/21/23 33/53/109 32/31/103
f 29/58/23 34/22/114 27/34/21
f 30/157/24 4/175/4 31/149/25
f 30/180/24 34/171/113 16/179/12
f 31/149/25 7/124/7 33/144/112
f 31/26/25 27/34/21 30/1/24
f 31/26/25 33/52/110 28/38/22
f 31/146/25 39/166/146 8/152/8
f 32/32/105 3/79/3 34/37/117
f 32/31/102 34/18/115 29/21/23
f 33/2/111 7/33/7 32/32/104
f 35/41/123 62/39/39 36/63/128
f 36/70/129 37/55/135 35/59/124
f 36/63/126 62/39/39 11/56/83
f 37/134/132 36/150/127 20/138/101
f 37/42/134 61/40/38 38/64/140
f 38/43/139 35/59/122 37/55/133
f 38/64/137 61/40/38 9/57/69
f 39/45/142 4/20/4 42/28/162
f 39/166/145 31/146/25 4/169/4
f 40/30/147 8/25/8 39/48/141
f 41/113/160 6/142/6 40/120/155
f 42/98/166 2/76/2 41/113/157
f 42/28/168 4/20/4 22/15/16
f 43/112/175 1/145/1 46/121/200
f 44/97/184 5/75/5 43/112/173
f 45/46/187 7/23/7 44/27/177
f 46/29/192 3/24/3 45/47/186
f 59/36/36 9/57/70 61/40/38
f 60/35/37 11/56/84 62/39/39
f 61/40/38 12/17/91 59/36/36
usemtl GLARE
s 1
f 63/12/40 71/83/48 80/107/57
f 70/200/47 80/107/57 78/126/55
f 71/133/48 79/108/56 72/90/49
f 72/90/49 79/108/56 64/8/41
f 72/89/49 81/116/58 73/132/50
f 73/132/50 81/116/58 65/197/42
f 73/128/50 82/101/59 74/85/51
f 74/85/51 82/101/59 66/4/43
f 74/86/51 83/104/60 75/130/52
f 75/130/52 83/104/60 67/193/44
f 75/82/52 84/103/61 76/125/53
f 76/125/53 84/103/61 68/199/45
f 76/127/53 85/102/62 77/84/54
f 77/84/54 85/102/62 69/6/46
f 77/88/54 86/117/63 78/131/55
f 78/126/55 80/107/57 71/83/48
f 78/131/55 86/117/63 70/198/47
f 79/108/56 71/133/48 63/196/40
f 81/116/58 72/89/49 64/9/41
f 82/101/59 73/128/50 65/192/42
f 83/104/60 74/86/51 66/5/43
f 84/103/61 75/82/52 67/11/44
f 85/102/62 76/127/53 68/194/45
f 86/117/63 77/88/54 69/10/46
